<svg xmlns="http://www.w3.org/2000/svg" width="170" height="60" viewBox="0 0 170 60">
  <g id="Group_70" data-name="Group 70" transform="translate(-385 -2438.541)">
    <rect id="Rectangle_4" data-name="Rectangle 4" width="170" height="60" rx="8" transform="translate(385 2438.541)" fill="#fff"/>
    <g id="Group_1" data-name="Group 1" transform="translate(410 2456.541)">
      <text id="Make_amazing_and_cle" data-name="Make amazing and cle" transform="translate(32 18)" font-size="16" font-family="SFProText-Regular, SF Pro Text"><tspan x="0" y="0">Google play</tspan></text>
      <g id="google-play">
        <path id="Path_1" data-name="Path 1" d="M23,12a2.011,2.011,0,0,1-1.03,1.75l-5.2,2.89L12.37,12l4.4-4.64,5.2,2.89A2.011,2.011,0,0,1,23,12Z" transform="translate(-1 0)" fill="#ffc107"/>
        <path id="Path_2" data-name="Path 2" d="M12.37,12,1.57,23.39A1.949,1.949,0,0,1,1,22V2A1.949,1.949,0,0,1,1.57.61Z" transform="translate(-1 0)" fill="#03a9f4"/>
        <path id="Path_3" data-name="Path 3" d="M12.37,12l4.4,4.64C3.6,23.865,3.045,24.947,1.57,23.39Z" transform="translate(-1 0)" fill="#f44336"/>
        <path id="Path_4" data-name="Path 4" d="M16.77,7.36,12.37,12,1.57.61A1.987,1.987,0,0,1,3.97.25Z" transform="translate(-1 0)" fill="#4caf50"/>
      </g>
    </g>
  </g>
</svg>
